<svg width="12" height="12" viewBox="0 0 12 12" fill="none" xmlns="http://www.w3.org/2000/svg">
<path fill-rule="evenodd" clip-rule="evenodd" d="M7.49996 3.25002H4.66663C3.88422 3.25002 3.24996 3.88428 3.24996 4.66669V7.50002C3.24996 8.28242 3.88422 8.91669 4.66663 8.91669H7.49996C8.28236 8.91669 8.91663 8.28242 8.91663 7.50002V4.66669C8.91663 3.88428 8.28236 3.25002 7.49996 3.25002ZM4.66663 0.416687C2.31942 0.416687 0.416626 2.31948 0.416626 4.66669V7.50002C0.416626 9.84723 2.31942 11.75 4.66663 11.75H7.49996C9.84717 11.75 11.75 9.84723 11.75 7.50002V4.66669C11.75 2.31948 9.84717 0.416687 7.49996 0.416687H4.66663Z" fill="white"/>
</svg>
