<svg width="32" height="31" viewBox="0 0 32 31" fill="none" xmlns="http://www.w3.org/2000/svg">
<path fill-rule="evenodd" clip-rule="evenodd" d="M7.63944 23.6506C8.20853 23.1764 8.92589 22.9167 9.66669 22.9167H27.0834C27.9578 22.9167 28.6667 22.2078 28.6667 21.3333V5.5C28.6667 4.62555 27.9578 3.91667 27.0834 3.91667H4.91669C4.04224 3.91667 3.33335 4.62555 3.33335 5.5V27.239L7.63944 23.6506ZM9.66669 26.0833H27.0834C29.7067 26.0833 31.8334 23.9567 31.8334 21.3333V5.5C31.8334 2.87665 29.7067 0.75 27.0834 0.75H4.91669C2.29333 0.75 0.166687 2.87665 0.166687 5.5V27.239C0.166687 29.9239 3.29806 31.3905 5.3606 29.6717L9.66669 26.0833Z" fill="white"/>
</svg>
