<svg width="12" height="12" viewBox="0 0 12 12" fill="none" xmlns="http://www.w3.org/2000/svg">
<path fill-rule="evenodd" clip-rule="evenodd" d="M7.33333 3.08333H4.5C3.7176 3.08333 3.08333 3.7176 3.08333 4.5V7.33333C3.08333 8.11574 3.7176 8.75 4.5 8.75H7.33333C8.11574 8.75 8.75 8.11574 8.75 7.33333V4.5C8.75 3.7176 8.11574 3.08333 7.33333 3.08333ZM4.5 0.25C2.15279 0.25 0.25 2.15279 0.25 4.5V7.33333C0.25 9.68054 2.15279 11.5833 4.5 11.5833H7.33333C9.68054 11.5833 11.5833 9.68054 11.5833 7.33333V4.5C11.5833 2.15279 9.68054 0.25 7.33333 0.25H4.5Z" fill="white"/>
</svg>
