<svg width="12" height="12" viewBox="0 0 12 12" fill="none" xmlns="http://www.w3.org/2000/svg">
<path fill-rule="evenodd" clip-rule="evenodd" d="M7.33333 3.25002H4.5C3.7176 3.25002 3.08333 3.88428 3.08333 4.66669V7.50002C3.08333 8.28242 3.7176 8.91669 4.5 8.91669H7.33333C8.11574 8.91669 8.75 8.28242 8.75 7.50002V4.66669C8.75 3.88428 8.11574 3.25002 7.33333 3.25002ZM4.5 0.416687C2.15279 0.416687 0.25 2.31948 0.25 4.66669V7.50002C0.25 9.84723 2.15279 11.75 4.5 11.75H7.33333C9.68054 11.75 11.5833 9.84723 11.5833 7.50002V4.66669C11.5833 2.31948 9.68054 0.416687 7.33333 0.416687H4.5Z" fill="white"/>
</svg>
