<svg width="12" height="12" viewBox="0 0 12 12" fill="none" xmlns="http://www.w3.org/2000/svg">
<path fill-rule="evenodd" clip-rule="evenodd" d="M7.49996 3.08333H4.66663C3.88422 3.08333 3.24996 3.7176 3.24996 4.5V7.33333C3.24996 8.11574 3.88422 8.75 4.66663 8.75H7.49996C8.28236 8.75 8.91663 8.11574 8.91663 7.33333V4.5C8.91663 3.7176 8.28236 3.08333 7.49996 3.08333ZM4.66663 0.25C2.31942 0.25 0.416626 2.15279 0.416626 4.5V7.33333C0.416626 9.68054 2.31942 11.5833 4.66663 11.5833H7.49996C9.84717 11.5833 11.75 9.68054 11.75 7.33333V4.5C11.75 2.15279 9.84717 0.25 7.49996 0.25H4.66663Z" fill="white"/>
</svg>
